<svg width="64" height="20" viewBox="0 0 64 20" fill="none" xmlns="http://www.w3.org/2000/svg">
<rect x="0.5" y="0.5" width="63" height="19" rx="3.5" stroke="#014478"/>
<path d="M14.4148 15C17.517 15 19.3118 13.076 19.3118 9.89418C19.3118 6.72727 17.517 4.81818 14.5192 4.81818H11.1186V15H14.4148ZM12.6548 13.6577V6.16051H14.4247C16.652 6.16051 17.8004 7.4929 17.8004 9.89418C17.8004 12.3054 16.652 13.6577 14.3303 13.6577H12.6548ZM24.394 15.1541C26.0595 15.1541 27.2377 14.3338 27.5758 13.0909L26.1689 12.8374C25.9004 13.5582 25.2541 13.9261 24.4089 13.9261C23.1362 13.9261 22.2811 13.1009 22.2413 11.6293H27.6703V11.1023C27.6703 8.34304 26.0197 7.2642 24.2896 7.2642C22.1618 7.2642 20.7598 8.88494 20.7598 11.2315C20.7598 13.603 22.1419 15.1541 24.394 15.1541ZM22.2463 10.5156C22.3059 9.43182 23.0914 8.49219 24.2995 8.49219C25.4529 8.49219 26.2086 9.3473 26.2136 10.5156H22.2463ZM30.8061 4.81818H29.3196V15H30.8061V4.81818ZM36.0971 15.1541C37.7626 15.1541 38.9409 14.3338 39.2789 13.0909L37.872 12.8374C37.6035 13.5582 36.9572 13.9261 36.112 13.9261C34.8393 13.9261 33.9842 13.1009 33.9444 11.6293H39.3734V11.1023C39.3734 8.34304 37.7228 7.2642 35.9927 7.2642C33.8649 7.2642 32.4629 8.88494 32.4629 11.2315C32.4629 13.603 33.845 15.1541 36.0971 15.1541ZM33.9494 10.5156C34.0091 9.43182 34.7946 8.49219 36.0027 8.49219C37.1561 8.49219 37.9118 9.3473 37.9167 10.5156H33.9494ZM44.5874 7.36364H43.0213V5.53409H41.5348V7.36364H40.4162V8.55682H41.5348V13.0661C41.5298 14.4531 42.5888 15.1243 43.7621 15.0994C44.2344 15.0945 44.5526 15.005 44.7266 14.9403L44.4581 13.7124C44.3587 13.7322 44.1747 13.777 43.9361 13.777C43.4538 13.777 43.0213 13.6179 43.0213 12.7578V8.55682H44.5874V7.36364ZM49.4409 15.1541C51.1064 15.1541 52.2846 14.3338 52.6227 13.0909L51.2157 12.8374C50.9473 13.5582 50.301 13.9261 49.4558 13.9261C48.1831 13.9261 47.3279 13.1009 47.2882 11.6293H52.7172V11.1023C52.7172 8.34304 51.0666 7.2642 49.3365 7.2642C47.2086 7.2642 45.8066 8.88494 45.8066 11.2315C45.8066 13.603 47.1887 15.1541 49.4409 15.1541ZM47.2931 10.5156C47.3528 9.43182 48.1383 8.49219 49.3464 8.49219C50.4998 8.49219 51.2555 9.3473 51.2605 10.5156H47.2931Z" fill="black"/>
</svg>
